# MagicaVoxel @ Ephtracy

# group
o 

# material
mtllib Spiky stick.mtl
usemtl palette

# normals
vn -1 0 0
vn 1 0 0
vn 0 0 1
vn 0 0 -1
vn 0 -1 0
vn 0 1 0

# texcoords
vt 0.169922 0.5
vt 0.974609 0.5
vt 0.978516 0.5
vt 0.982422 0.5
vt 0.990234 0.5

# verts
v 0 3.5 -0.9
v 0 3.5 -1
v 0 3.7 -0.9
v 0 3.7 -1
v 0.1 3.4 -0.9
v 0.1 3.4 -1
v 0.1 3.5 -0.9
v 0.1 3.5 -1
v 0.1 3.7 -0.9
v 0.1 3.7 -1
v 0.1 3.8 -0.9
v 0.1 3.8 -1
v 0.2 3.3 -0.9
v 0.2 3.3 -1
v 0.2 3.4 -0.9
v 0.2 3.4 -1
v 0.2 3.8 -0.9
v 0.2 3.8 -1
v 0.2 3.9 -0.9
v 0.2 3.9 -1
v 0.4 3.2 -0.9
v 0.4 3.2 -1
v 0.4 3.3 -0.9
v 0.4 3.3 -1
v 0.4 3.9 -0.9
v 0.4 3.9 -1
v 0.4 4 -0.9
v 0.4 4 -1
v 0.7 3.2 -0.8
v 0.7 3.2 -0.9
v 0.7 3.2 -1
v 0.7 3.2 -1.1
v 0.7 3.3 -0.9
v 0.7 3.3 -1
v 0.7 3.4 -0.9
v 0.7 3.4 -1
v 0.7 3.8 -0.9
v 0.7 3.8 -1
v 0.7 3.9 -0.9
v 0.7 3.9 -1
v 0.7 4 -0.8
v 0.7 4 -0.9
v 0.7 4 -1
v 0.7 4 -1.1
v 0.8 2 -0.8
v 0.8 2 -1.1
v 0.8 3.2 -0.7
v 0.8 3.2 -0.8
v 0.8 3.2 -1.1
v 0.8 3.2 -1.2
v 0.8 4 -0.7
v 0.8 4 -0.8
v 0.8 4 -1.1
v 0.8 4 -1.2
v 0.9 3.2 -0.4
v 0.9 3.2 -0.7
v 0.9 3.2 -1.2
v 0.9 3.2 -1.5
v 0.9 3.3 -0.2
v 0.9 3.3 -0.4
v 0.9 3.3 -0.7
v 0.9 3.3 -1.2
v 0.9 3.3 -1.5
v 0.9 3.3 -1.7
v 0.9 3.4 -0.1
v 0.9 3.4 -0.2
v 0.9 3.4 -0.4
v 0.9 3.4 -0.7
v 0.9 3.4 -1.2
v 0.9 3.4 -1.5
v 0.9 3.4 -1.7
v 0.9 3.4 -1.8
v 0.9 3.5 0
v 0.9 3.5 -0.1
v 0.9 3.5 -0.2
v 0.9 3.5 -0.4
v 0.9 3.5 -1.5
v 0.9 3.5 -1.7
v 0.9 3.5 -1.8
v 0.9 3.5 -1.9
v 0.9 3.7 0
v 0.9 3.7 -0.1
v 0.9 3.7 -0.2
v 0.9 3.7 -0.4
v 0.9 3.7 -1.5
v 0.9 3.7 -1.7
v 0.9 3.7 -1.8
v 0.9 3.7 -1.9
v 0.9 3.8 -0.1
v 0.9 3.8 -0.2
v 0.9 3.8 -0.4
v 0.9 3.8 -0.7
v 0.9 3.8 -1.2
v 0.9 3.8 -1.5
v 0.9 3.8 -1.7
v 0.9 3.8 -1.8
v 0.9 3.9 -0.2
v 0.9 3.9 -0.4
v 0.9 3.9 -0.7
v 0.9 3.9 -1.2
v 0.9 3.9 -1.5
v 0.9 3.9 -1.7
v 0.9 4 -0.4
v 0.9 4 -0.7
v 0.9 4 -1.2
v 0.9 4 -1.5
v 1 3.2 -0.4
v 1 3.2 -0.7
v 1 3.2 -1.2
v 1 3.2 -1.5
v 1 3.3 -0.2
v 1 3.3 -0.4
v 1 3.3 -0.7
v 1 3.3 -1.2
v 1 3.3 -1.5
v 1 3.3 -1.7
v 1 3.4 -0.1
v 1 3.4 -0.2
v 1 3.4 -0.4
v 1 3.4 -0.7
v 1 3.4 -1.2
v 1 3.4 -1.5
v 1 3.4 -1.7
v 1 3.4 -1.8
v 1 3.5 0
v 1 3.5 -0.1
v 1 3.5 -0.2
v 1 3.5 -0.4
v 1 3.5 -1.5
v 1 3.5 -1.7
v 1 3.5 -1.8
v 1 3.5 -1.9
v 1 3.7 0
v 1 3.7 -0.1
v 1 3.7 -0.2
v 1 3.7 -0.4
v 1 3.7 -1.5
v 1 3.7 -1.7
v 1 3.7 -1.8
v 1 3.7 -1.9
v 1 3.8 -0.1
v 1 3.8 -0.2
v 1 3.8 -0.4
v 1 3.8 -0.7
v 1 3.8 -1.2
v 1 3.8 -1.5
v 1 3.8 -1.7
v 1 3.8 -1.8
v 1 3.9 -0.2
v 1 3.9 -0.4
v 1 3.9 -0.7
v 1 3.9 -1.2
v 1 3.9 -1.5
v 1 3.9 -1.7
v 1 4 -0.4
v 1 4 -0.7
v 1 4 -1.2
v 1 4 -1.5
v 1.1 2 -0.8
v 1.1 2 -1.1
v 1.1 3.2 -0.7
v 1.1 3.2 -0.8
v 1.1 3.2 -1.1
v 1.1 3.2 -1.2
v 1.1 4 -0.7
v 1.1 4 -0.8
v 1.1 4 -1.1
v 1.1 4 -1.2
v 1.2 3.2 -0.8
v 1.2 3.2 -0.9
v 1.2 3.2 -1
v 1.2 3.2 -1.1
v 1.2 3.3 -0.9
v 1.2 3.3 -1
v 1.2 3.4 -0.9
v 1.2 3.4 -1
v 1.2 3.8 -0.9
v 1.2 3.8 -1
v 1.2 3.9 -0.9
v 1.2 3.9 -1
v 1.2 4 -0.8
v 1.2 4 -0.9
v 1.2 4 -1
v 1.2 4 -1.1
v 1.5 3.2 -0.9
v 1.5 3.2 -1
v 1.5 3.3 -0.9
v 1.5 3.3 -1
v 1.5 3.9 -0.9
v 1.5 3.9 -1
v 1.5 4 -0.9
v 1.5 4 -1
v 1.7 3.3 -0.9
v 1.7 3.3 -1
v 1.7 3.4 -0.9
v 1.7 3.4 -1
v 1.7 3.8 -0.9
v 1.7 3.8 -1
v 1.7 3.9 -0.9
v 1.7 3.9 -1
v 1.8 3.4 -0.9
v 1.8 3.4 -1
v 1.8 3.5 -0.9
v 1.8 3.5 -1
v 1.8 3.7 -0.9
v 1.8 3.7 -1
v 1.8 3.8 -0.9
v 1.8 3.8 -1
v 1.9 3.5 -0.9
v 1.9 3.5 -1
v 1.9 3.7 -0.9
v 1.9 3.7 -1
v 0.9 3.5 0
v 0.9 3.7 0
v 1 3.5 0
v 1 3.7 0
v 0.9 3.4 -0.1
v 0.9 3.5 -0.1
v 0.9 3.7 -0.1
v 0.9 3.8 -0.1
v 1 3.4 -0.1
v 1 3.5 -0.1
v 1 3.7 -0.1
v 1 3.8 -0.1
v 0.9 3.3 -0.2
v 0.9 3.4 -0.2
v 0.9 3.8 -0.2
v 0.9 3.9 -0.2
v 1 3.3 -0.2
v 1 3.4 -0.2
v 1 3.8 -0.2
v 1 3.9 -0.2
v 0.9 3.2 -0.4
v 0.9 3.3 -0.4
v 0.9 3.9 -0.4
v 0.9 4 -0.4
v 1 3.2 -0.4
v 1 3.3 -0.4
v 1 3.9 -0.4
v 1 4 -0.4
v 0.8 3.2 -0.7
v 0.8 4 -0.7
v 0.9 3.2 -0.7
v 0.9 3.3 -0.7
v 0.9 3.4 -0.7
v 0.9 3.8 -0.7
v 0.9 3.9 -0.7
v 0.9 4 -0.7
v 1 3.2 -0.7
v 1 3.3 -0.7
v 1 3.4 -0.7
v 1 3.8 -0.7
v 1 3.9 -0.7
v 1 4 -0.7
v 1.1 3.2 -0.7
v 1.1 4 -0.7
v 0.7 3.2 -0.8
v 0.7 4 -0.8
v 0.8 2 -0.8
v 0.8 3.2 -0.8
v 0.8 4 -0.8
v 1.1 2 -0.8
v 1.1 3.2 -0.8
v 1.1 4 -0.8
v 1.2 3.2 -0.8
v 1.2 4 -0.8
v 0 3.5 -0.9
v 0 3.7 -0.9
v 0.1 3.4 -0.9
v 0.1 3.5 -0.9
v 0.1 3.7 -0.9
v 0.1 3.8 -0.9
v 0.2 3.3 -0.9
v 0.2 3.4 -0.9
v 0.2 3.5 -0.9
v 0.2 3.7 -0.9
v 0.2 3.8 -0.9
v 0.2 3.9 -0.9
v 0.4 3.2 -0.9
v 0.4 3.3 -0.9
v 0.4 3.4 -0.9
v 0.4 3.5 -0.9
v 0.4 3.7 -0.9
v 0.4 3.8 -0.9
v 0.4 3.9 -0.9
v 0.4 4 -0.9
v 0.7 3.2 -0.9
v 0.7 3.3 -0.9
v 0.7 3.4 -0.9
v 0.7 3.8 -0.9
v 0.7 3.9 -0.9
v 0.7 4 -0.9
v 1.2 3.2 -0.9
v 1.2 3.3 -0.9
v 1.2 3.4 -0.9
v 1.2 3.8 -0.9
v 1.2 3.9 -0.9
v 1.2 4 -0.9
v 1.5 3.2 -0.9
v 1.5 3.3 -0.9
v 1.5 3.4 -0.9
v 1.5 3.5 -0.9
v 1.5 3.7 -0.9
v 1.5 3.8 -0.9
v 1.5 3.9 -0.9
v 1.5 4 -0.9
v 1.7 3.3 -0.9
v 1.7 3.4 -0.9
v 1.7 3.5 -0.9
v 1.7 3.7 -0.9
v 1.7 3.8 -0.9
v 1.7 3.9 -0.9
v 1.8 3.4 -0.9
v 1.8 3.5 -0.9
v 1.8 3.7 -0.9
v 1.8 3.8 -0.9
v 1.9 3.5 -0.9
v 1.9 3.7 -0.9
v 0 3.5 -1
v 0 3.7 -1
v 0.1 3.4 -1
v 0.1 3.5 -1
v 0.1 3.7 -1
v 0.1 3.8 -1
v 0.2 3.3 -1
v 0.2 3.4 -1
v 0.2 3.5 -1
v 0.2 3.7 -1
v 0.2 3.8 -1
v 0.2 3.9 -1
v 0.4 3.2 -1
v 0.4 3.3 -1
v 0.4 3.4 -1
v 0.4 3.5 -1
v 0.4 3.7 -1
v 0.4 3.8 -1
v 0.4 3.9 -1
v 0.4 4 -1
v 0.7 3.2 -1
v 0.7 3.3 -1
v 0.7 3.4 -1
v 0.7 3.8 -1
v 0.7 3.9 -1
v 0.7 4 -1
v 1.2 3.2 -1
v 1.2 3.3 -1
v 1.2 3.4 -1
v 1.2 3.8 -1
v 1.2 3.9 -1
v 1.2 4 -1
v 1.5 3.2 -1
v 1.5 3.3 -1
v 1.5 3.4 -1
v 1.5 3.5 -1
v 1.5 3.7 -1
v 1.5 3.8 -1
v 1.5 3.9 -1
v 1.5 4 -1
v 1.7 3.3 -1
v 1.7 3.4 -1
v 1.7 3.5 -1
v 1.7 3.7 -1
v 1.7 3.8 -1
v 1.7 3.9 -1
v 1.8 3.4 -1
v 1.8 3.5 -1
v 1.8 3.7 -1
v 1.8 3.8 -1
v 1.9 3.5 -1
v 1.9 3.7 -1
v 0.7 3.2 -1.1
v 0.7 4 -1.1
v 0.8 2 -1.1
v 0.8 3.2 -1.1
v 0.8 4 -1.1
v 1.1 2 -1.1
v 1.1 3.2 -1.1
v 1.1 4 -1.1
v 1.2 3.2 -1.1
v 1.2 4 -1.1
v 0.8 3.2 -1.2
v 0.8 4 -1.2
v 0.9 3.2 -1.2
v 0.9 3.3 -1.2
v 0.9 3.4 -1.2
v 0.9 3.8 -1.2
v 0.9 3.9 -1.2
v 0.9 4 -1.2
v 1 3.2 -1.2
v 1 3.3 -1.2
v 1 3.4 -1.2
v 1 3.8 -1.2
v 1 3.9 -1.2
v 1 4 -1.2
v 1.1 3.2 -1.2
v 1.1 4 -1.2
v 0.9 3.2 -1.5
v 0.9 3.3 -1.5
v 0.9 3.9 -1.5
v 0.9 4 -1.5
v 1 3.2 -1.5
v 1 3.3 -1.5
v 1 3.9 -1.5
v 1 4 -1.5
v 0.9 3.3 -1.7
v 0.9 3.4 -1.7
v 0.9 3.8 -1.7
v 0.9 3.9 -1.7
v 1 3.3 -1.7
v 1 3.4 -1.7
v 1 3.8 -1.7
v 1 3.9 -1.7
v 0.9 3.4 -1.8
v 0.9 3.5 -1.8
v 0.9 3.7 -1.8
v 0.9 3.8 -1.8
v 1 3.4 -1.8
v 1 3.5 -1.8
v 1 3.7 -1.8
v 1 3.8 -1.8
v 0.9 3.5 -1.9
v 0.9 3.7 -1.9
v 1 3.5 -1.9
v 1 3.7 -1.9
v 0.8 2 -0.8
v 1.1 2 -0.8
v 0.9 2 -0.9
v 1 2 -0.9
v 0.9 2 -1
v 1 2 -1
v 0.8 2 -1.1
v 1.1 2 -1.1
v 0.9 3.2 -0.4
v 1 3.2 -0.4
v 0.8 3.2 -0.7
v 0.9 3.2 -0.7
v 1 3.2 -0.7
v 1.1 3.2 -0.7
v 0.7 3.2 -0.8
v 0.8 3.2 -0.8
v 1.1 3.2 -0.8
v 1.2 3.2 -0.8
v 0.4 3.2 -0.9
v 0.7 3.2 -0.9
v 1.2 3.2 -0.9
v 1.5 3.2 -0.9
v 0.4 3.2 -1
v 0.7 3.2 -1
v 1.2 3.2 -1
v 1.5 3.2 -1
v 0.7 3.2 -1.1
v 0.8 3.2 -1.1
v 1.1 3.2 -1.1
v 1.2 3.2 -1.1
v 0.8 3.2 -1.2
v 0.9 3.2 -1.2
v 1 3.2 -1.2
v 1.1 3.2 -1.2
v 0.9 3.2 -1.5
v 1 3.2 -1.5
v 0.9 3.3 -0.2
v 1 3.3 -0.2
v 0.9 3.3 -0.4
v 1 3.3 -0.4
v 0.2 3.3 -0.9
v 0.4 3.3 -0.9
v 1.5 3.3 -0.9
v 1.7 3.3 -0.9
v 0.2 3.3 -1
v 0.4 3.3 -1
v 1.5 3.3 -1
v 1.7 3.3 -1
v 0.9 3.3 -1.5
v 1 3.3 -1.5
v 0.9 3.3 -1.7
v 1 3.3 -1.7
v 0.9 3.4 -0.1
v 1 3.4 -0.1
v 0.9 3.4 -0.2
v 1 3.4 -0.2
v 0.1 3.4 -0.9
v 0.2 3.4 -0.9
v 1.7 3.4 -0.9
v 1.8 3.4 -0.9
v 0.1 3.4 -1
v 0.2 3.4 -1
v 1.7 3.4 -1
v 1.8 3.4 -1
v 0.9 3.4 -1.7
v 1 3.4 -1.7
v 0.9 3.4 -1.8
v 1 3.4 -1.8
v 0.9 3.5 0
v 1 3.5 0
v 0.9 3.5 -0.1
v 1 3.5 -0.1
v 0 3.5 -0.9
v 0.1 3.5 -0.9
v 1.8 3.5 -0.9
v 1.9 3.5 -0.9
v 0 3.5 -1
v 0.1 3.5 -1
v 1.8 3.5 -1
v 1.9 3.5 -1
v 0.9 3.5 -1.8
v 1 3.5 -1.8
v 0.9 3.5 -1.9
v 1 3.5 -1.9
v 0.9 3.7 0
v 1 3.7 0
v 0.9 3.7 -0.1
v 1 3.7 -0.1
v 0 3.7 -0.9
v 0.1 3.7 -0.9
v 1.8 3.7 -0.9
v 1.9 3.7 -0.9
v 0 3.7 -1
v 0.1 3.7 -1
v 1.8 3.7 -1
v 1.9 3.7 -1
v 0.9 3.7 -1.8
v 1 3.7 -1.8
v 0.9 3.7 -1.9
v 1 3.7 -1.9
v 0.9 3.8 -0.1
v 1 3.8 -0.1
v 0.9 3.8 -0.2
v 1 3.8 -0.2
v 0.1 3.8 -0.9
v 0.2 3.8 -0.9
v 1.7 3.8 -0.9
v 1.8 3.8 -0.9
v 0.1 3.8 -1
v 0.2 3.8 -1
v 1.7 3.8 -1
v 1.8 3.8 -1
v 0.9 3.8 -1.7
v 1 3.8 -1.7
v 0.9 3.8 -1.8
v 1 3.8 -1.8
v 0.9 3.9 -0.2
v 1 3.9 -0.2
v 0.9 3.9 -0.4
v 1 3.9 -0.4
v 0.2 3.9 -0.9
v 0.4 3.9 -0.9
v 1.5 3.9 -0.9
v 1.7 3.9 -0.9
v 0.2 3.9 -1
v 0.4 3.9 -1
v 1.5 3.9 -1
v 1.7 3.9 -1
v 0.9 3.9 -1.5
v 1 3.9 -1.5
v 0.9 3.9 -1.7
v 1 3.9 -1.7
v 0.9 4 -0.4
v 1 4 -0.4
v 0.8 4 -0.7
v 0.9 4 -0.7
v 1 4 -0.7
v 1.1 4 -0.7
v 0.7 4 -0.8
v 0.8 4 -0.8
v 1.1 4 -0.8
v 1.2 4 -0.8
v 0.4 4 -0.9
v 0.7 4 -0.9
v 1.2 4 -0.9
v 1.5 4 -0.9
v 0.4 4 -1
v 0.7 4 -1
v 1.2 4 -1
v 1.5 4 -1
v 0.7 4 -1.1
v 0.8 4 -1.1
v 1.1 4 -1.1
v 1.2 4 -1.1
v 0.8 4 -1.2
v 0.9 4 -1.2
v 1 4 -1.2
v 1.1 4 -1.2
v 0.9 4 -1.5
v 1 4 -1.5

# faces
f 3/4/1 2/4/1 1/4/1
f 4/4/1 2/4/1 3/4/1
f 7/4/1 6/4/1 5/4/1
f 8/4/1 6/4/1 7/4/1
f 11/4/1 10/4/1 9/4/1
f 12/4/1 10/4/1 11/4/1
f 15/4/1 14/4/1 13/4/1
f 16/4/1 14/4/1 15/4/1
f 19/4/1 18/4/1 17/4/1
f 20/4/1 18/4/1 19/4/1
f 23/4/1 22/4/1 21/4/1
f 24/4/1 22/4/1 23/4/1
f 27/4/1 26/4/1 25/4/1
f 28/4/1 26/4/1 27/4/1
f 33/1/1 30/1/1 29/1/1
f 34/1/1 32/1/1 31/1/1
f 35/1/1 33/1/1 29/1/1
f 36/1/1 32/1/1 34/1/1
f 37/1/1 35/1/1 29/1/1
f 38/1/1 32/1/1 36/1/1
f 39/1/1 37/1/1 29/1/1
f 40/1/1 32/1/1 38/1/1
f 41/1/1 39/1/1 29/1/1
f 42/1/1 39/1/1 41/1/1
f 43/1/1 32/1/1 40/1/1
f 44/1/1 32/1/1 43/1/1
f 48/1/1 46/1/1 45/1/1
f 49/1/1 46/1/1 48/1/1
f 51/1/1 48/1/1 47/1/1
f 52/1/1 48/1/1 51/1/1
f 53/1/1 50/1/1 49/1/1
f 54/1/1 50/1/1 53/1/1
f 60/4/1 56/4/1 55/4/1
f 61/4/1 56/4/1 60/4/1
f 62/4/1 58/4/1 57/4/1
f 63/4/1 58/4/1 62/4/1
f 66/4/1 60/4/1 59/4/1
f 67/3/1 61/3/1 60/3/1
f 67/4/1 60/4/1 66/4/1
f 68/3/1 61/3/1 67/3/1
f 69/3/1 63/3/1 62/3/1
f 70/4/1 64/4/1 63/4/1
f 70/3/1 63/3/1 69/3/1
f 71/4/1 64/4/1 70/4/1
f 74/4/1 66/4/1 65/4/1
f 75/3/1 67/3/1 66/3/1
f 75/4/1 66/4/1 74/4/1
f 76/2/1 68/2/1 67/2/1
f 76/3/1 67/3/1 75/3/1
f 77/2/1 70/2/1 69/2/1
f 77/3/1 71/3/1 70/3/1
f 78/4/1 72/4/1 71/4/1
f 78/3/1 71/3/1 77/3/1
f 79/4/1 72/4/1 78/4/1
f 81/4/1 74/4/1 73/4/1
f 82/3/1 75/3/1 74/3/1
f 82/4/1 74/4/1 81/4/1
f 83/2/1 76/2/1 75/2/1
f 83/3/1 75/3/1 82/3/1
f 84/2/1 68/2/1 76/2/1
f 84/2/1 76/2/1 83/2/1
f 85/2/1 77/2/1 69/2/1
f 85/2/1 78/2/1 77/2/1
f 86/3/1 79/3/1 78/3/1
f 86/2/1 78/2/1 85/2/1
f 87/4/1 80/4/1 79/4/1
f 87/3/1 79/3/1 86/3/1
f 88/4/1 80/4/1 87/4/1
f 89/4/1 83/4/1 82/4/1
f 90/3/1 84/3/1 83/3/1
f 90/4/1 83/4/1 89/4/1
f 91/2/1 68/2/1 84/2/1
f 91/3/1 84/3/1 90/3/1
f 92/2/1 68/2/1 91/2/1
f 93/2/1 85/2/1 69/2/1
f 94/3/1 86/3/1 85/3/1
f 94/2/1 85/2/1 93/2/1
f 95/4/1 87/4/1 86/4/1
f 95/3/1 86/3/1 94/3/1
f 96/4/1 87/4/1 95/4/1
f 97/4/1 91/4/1 90/4/1
f 98/3/1 92/3/1 91/3/1
f 98/4/1 91/4/1 97/4/1
f 99/3/1 92/3/1 98/3/1
f 100/3/1 94/3/1 93/3/1
f 101/4/1 95/4/1 94/4/1
f 101/3/1 94/3/1 100/3/1
f 102/4/1 95/4/1 101/4/1
f 103/4/1 99/4/1 98/4/1
f 104/4/1 99/4/1 103/4/1
f 105/4/1 101/4/1 100/4/1
f 106/4/1 101/4/1 105/4/1
f 107/4/2 108/4/2 112/4/2
f 112/4/2 108/4/2 113/4/2
f 109/4/2 110/4/2 114/4/2
f 114/4/2 110/4/2 115/4/2
f 111/4/2 112/4/2 118/4/2
f 112/3/2 113/3/2 119/3/2
f 118/4/2 112/4/2 119/4/2
f 119/3/2 113/3/2 120/3/2
f 114/3/2 115/3/2 121/3/2
f 115/4/2 116/4/2 122/4/2
f 121/3/2 115/3/2 122/3/2
f 122/4/2 116/4/2 123/4/2
f 117/4/2 118/4/2 126/4/2
f 118/3/2 119/3/2 127/3/2
f 126/4/2 118/4/2 127/4/2
f 119/2/2 120/2/2 128/2/2
f 127/3/2 119/3/2 128/3/2
f 121/2/2 122/2/2 129/2/2
f 122/3/2 123/3/2 129/3/2
f 123/4/2 124/4/2 130/4/2
f 129/3/2 123/3/2 130/3/2
f 130/4/2 124/4/2 131/4/2
f 125/4/2 126/4/2 133/4/2
f 126/3/2 127/3/2 134/3/2
f 133/4/2 126/4/2 134/4/2
f 127/2/2 128/2/2 135/2/2
f 134/3/2 127/3/2 135/3/2
f 128/2/2 120/2/2 136/2/2
f 135/2/2 128/2/2 136/2/2
f 121/2/2 129/2/2 137/2/2
f 129/2/2 130/2/2 137/2/2
f 130/3/2 131/3/2 138/3/2
f 137/2/2 130/2/2 138/2/2
f 131/4/2 132/4/2 139/4/2
f 138/3/2 131/3/2 139/3/2
f 139/4/2 132/4/2 140/4/2
f 134/4/2 135/4/2 141/4/2
f 135/3/2 136/3/2 142/3/2
f 141/4/2 135/4/2 142/4/2
f 136/2/2 120/2/2 143/2/2
f 142/3/2 136/3/2 143/3/2
f 143/2/2 120/2/2 144/2/2
f 121/2/2 137/2/2 145/2/2
f 137/3/2 138/3/2 146/3/2
f 145/2/2 137/2/2 146/2/2
f 138/4/2 139/4/2 147/4/2
f 146/3/2 138/3/2 147/3/2
f 147/4/2 139/4/2 148/4/2
f 142/4/2 143/4/2 149/4/2
f 143/3/2 144/3/2 150/3/2
f 149/4/2 143/4/2 150/4/2
f 150/3/2 144/3/2 151/3/2
f 145/3/2 146/3/2 152/3/2
f 146/4/2 147/4/2 153/4/2
f 152/3/2 146/3/2 153/3/2
f 153/4/2 147/4/2 154/4/2
f 150/4/2 151/4/2 155/4/2
f 155/4/2 151/4/2 156/4/2
f 152/4/2 153/4/2 157/4/2
f 157/4/2 153/4/2 158/4/2
f 159/1/2 160/1/2 162/1/2
f 162/1/2 160/1/2 163/1/2
f 161/1/2 162/1/2 165/1/2
f 165/1/2 162/1/2 166/1/2
f 163/1/2 164/1/2 167/1/2
f 167/1/2 164/1/2 168/1/2
f 169/1/2 170/1/2 173/1/2
f 171/1/2 172/1/2 174/1/2
f 169/1/2 173/1/2 175/1/2
f 174/1/2 172/1/2 176/1/2
f 169/1/2 175/1/2 177/1/2
f 176/1/2 172/1/2 178/1/2
f 169/1/2 177/1/2 179/1/2
f 178/1/2 172/1/2 180/1/2
f 169/1/2 179/1/2 181/1/2
f 181/1/2 179/1/2 182/1/2
f 180/1/2 172/1/2 183/1/2
f 183/1/2 172/1/2 184/1/2
f 185/4/2 186/4/2 187/4/2
f 187/4/2 186/4/2 188/4/2
f 189/4/2 190/4/2 191/4/2
f 191/4/2 190/4/2 192/4/2
f 193/4/2 194/4/2 195/4/2
f 195/4/2 194/4/2 196/4/2
f 197/4/2 198/4/2 199/4/2
f 199/4/2 198/4/2 200/4/2
f 201/4/2 202/4/2 203/4/2
f 203/4/2 202/4/2 204/4/2
f 205/4/2 206/4/2 207/4/2
f 207/4/2 206/4/2 208/4/2
f 209/4/2 210/4/2 211/4/2
f 211/4/2 210/4/2 212/4/2
f 215/4/3 214/4/3 213/4/3
f 216/4/3 214/4/3 215/4/3
f 221/4/3 218/4/3 217/4/3
f 222/4/3 218/4/3 221/4/3
f 223/4/3 220/4/3 219/4/3
f 224/4/3 220/4/3 223/4/3
f 229/4/3 226/4/3 225/4/3
f 230/4/3 226/4/3 229/4/3
f 231/4/3 228/4/3 227/4/3
f 232/4/3 228/4/3 231/4/3
f 237/4/3 234/4/3 233/4/3
f 238/4/3 234/4/3 237/4/3
f 239/4/3 236/4/3 235/4/3
f 240/4/3 236/4/3 239/4/3
f 243/1/3 242/1/3 241/1/3
f 244/1/3 242/1/3 243/1/3
f 245/1/3 242/1/3 244/1/3
f 246/1/3 242/1/3 245/1/3
f 247/1/3 242/1/3 246/1/3
f 248/1/3 242/1/3 247/1/3
f 255/1/3 250/1/3 249/1/3
f 255/1/3 254/1/3 253/1/3
f 255/1/3 253/1/3 252/1/3
f 255/1/3 252/1/3 251/1/3
f 255/1/3 251/1/3 250/1/3
f 256/1/3 254/1/3 255/1/3
f 260/1/3 258/1/3 257/1/3
f 261/1/3 258/1/3 260/1/3
f 262/1/3 260/1/3 259/1/3
f 263/1/3 260/1/3 262/1/3
f 265/1/3 264/1/3 263/1/3
f 266/1/3 264/1/3 265/1/3
f 270/4/3 268/4/3 267/4/3
f 271/4/3 268/4/3 270/4/3
f 274/4/3 270/4/3 269/4/3
f 275/3/3 271/3/3 270/3/3
f 275/4/3 270/4/3 274/4/3
f 276/4/3 272/4/3 271/4/3
f 276/3/3 271/3/3 275/3/3
f 277/4/3 272/4/3 276/4/3
f 280/4/3 274/4/3 273/4/3
f 281/3/3 275/3/3 274/3/3
f 281/4/3 274/4/3 280/4/3
f 282/2/3 276/2/3 275/2/3
f 282/3/3 275/3/3 281/3/3
f 283/3/3 277/3/3 276/3/3
f 283/2/3 276/2/3 282/2/3
f 284/4/3 278/4/3 277/4/3
f 284/3/3 277/3/3 283/3/3
f 285/4/3 278/4/3 284/4/3
f 287/4/3 280/4/3 279/4/3
f 288/3/3 281/3/3 280/3/3
f 288/4/3 280/4/3 287/4/3
f 289/2/3 283/2/3 282/2/3
f 289/3/3 281/3/3 288/3/3
f 289/2/3 282/2/3 281/2/3
f 289/2/3 284/2/3 283/2/3
f 290/3/3 285/3/3 284/3/3
f 290/2/3 284/2/3 289/2/3
f 291/4/3 286/4/3 285/4/3
f 291/3/3 285/3/3 290/3/3
f 292/4/3 286/4/3 291/4/3
f 299/4/3 294/4/3 293/4/3
f 300/3/3 295/3/3 294/3/3
f 300/4/3 294/4/3 299/4/3
f 301/2/3 296/2/3 295/2/3
f 301/3/3 295/3/3 300/3/3
f 302/2/3 296/2/3 301/2/3
f 303/2/3 296/2/3 302/2/3
f 304/3/3 297/3/3 296/3/3
f 304/2/3 296/2/3 303/2/3
f 305/4/3 298/4/3 297/4/3
f 305/3/3 297/3/3 304/3/3
f 306/4/3 298/4/3 305/4/3
f 307/4/3 301/4/3 300/4/3
f 308/3/3 302/3/3 301/3/3
f 308/4/3 301/4/3 307/4/3
f 309/2/3 303/2/3 302/2/3
f 309/3/3 302/3/3 308/3/3
f 310/3/3 304/3/3 303/3/3
f 310/2/3 303/2/3 309/2/3
f 311/4/3 305/4/3 304/4/3
f 311/3/3 304/3/3 310/3/3
f 312/4/3 305/4/3 311/4/3
f 313/4/3 309/4/3 308/4/3
f 314/3/3 310/3/3 309/3/3
f 314/4/3 309/4/3 313/4/3
f 315/4/3 311/4/3 310/4/3
f 315/3/3 310/3/3 314/3/3
f 316/4/3 311/4/3 315/4/3
f 317/4/3 315/4/3 314/4/3
f 318/4/3 315/4/3 317/4/3
f 319/4/4 320/4/4 322/4/4
f 322/4/4 320/4/4 323/4/4
f 321/4/4 322/4/4 326/4/4
f 322/3/4 323/3/4 327/3/4
f 326/4/4 322/4/4 327/4/4
f 323/4/4 324/4/4 328/4/4
f 327/3/4 323/3/4 328/3/4
f 328/4/4 324/4/4 329/4/4
f 325/4/4 326/4/4 332/4/4
f 326/3/4 327/3/4 333/3/4
f 332/4/4 326/4/4 333/4/4
f 327/2/4 328/2/4 334/2/4
f 333/3/4 327/3/4 334/3/4
f 328/3/4 329/3/4 335/3/4
f 334/2/4 328/2/4 335/2/4
f 329/4/4 330/4/4 336/4/4
f 335/3/4 329/3/4 336/3/4
f 336/4/4 330/4/4 337/4/4
f 331/4/4 332/4/4 339/4/4
f 332/3/4 333/3/4 340/3/4
f 339/4/4 332/4/4 340/4/4
f 334/2/4 335/2/4 341/2/4
f 340/3/4 333/3/4 341/3/4
f 333/2/4 334/2/4 341/2/4
f 335/2/4 336/2/4 341/2/4
f 336/3/4 337/3/4 342/3/4
f 341/2/4 336/2/4 342/2/4
f 337/4/4 338/4/4 343/4/4
f 342/3/4 337/3/4 343/3/4
f 343/4/4 338/4/4 344/4/4
f 345/4/4 346/4/4 351/4/4
f 346/3/4 347/3/4 352/3/4
f 351/4/4 346/4/4 352/4/4
f 347/2/4 348/2/4 353/2/4
f 352/3/4 347/3/4 353/3/4
f 353/2/4 348/2/4 354/2/4
f 354/2/4 348/2/4 355/2/4
f 348/3/4 349/3/4 356/3/4
f 355/2/4 348/2/4 356/2/4
f 349/4/4 350/4/4 357/4/4
f 356/3/4 349/3/4 357/3/4
f 357/4/4 350/4/4 358/4/4
f 352/4/4 353/4/4 359/4/4
f 353/3/4 354/3/4 360/3/4
f 359/4/4 353/4/4 360/4/4
f 354/2/4 355/2/4 361/2/4
f 360/3/4 354/3/4 361/3/4
f 355/3/4 356/3/4 362/3/4
f 361/2/4 355/2/4 362/2/4
f 356/4/4 357/4/4 363/4/4
f 362/3/4 356/3/4 363/3/4
f 363/4/4 357/4/4 364/4/4
f 360/4/4 361/4/4 365/4/4
f 361/3/4 362/3/4 366/3/4
f 365/4/4 361/4/4 366/4/4
f 362/4/4 363/4/4 367/4/4
f 366/3/4 362/3/4 367/3/4
f 367/4/4 363/4/4 368/4/4
f 366/4/4 367/4/4 369/4/4
f 369/4/4 367/4/4 370/4/4
f 371/1/4 372/1/4 374/1/4
f 374/1/4 372/1/4 375/1/4
f 373/1/4 374/1/4 376/1/4
f 376/1/4 374/1/4 377/1/4
f 377/1/4 378/1/4 379/1/4
f 379/1/4 378/1/4 380/1/4
f 381/1/4 382/1/4 383/1/4
f 383/1/4 382/1/4 384/1/4
f 384/1/4 382/1/4 385/1/4
f 385/1/4 382/1/4 386/1/4
f 386/1/4 382/1/4 387/1/4
f 387/1/4 382/1/4 388/1/4
f 389/1/4 390/1/4 395/1/4
f 393/1/4 394/1/4 395/1/4
f 392/1/4 393/1/4 395/1/4
f 391/1/4 392/1/4 395/1/4
f 390/1/4 391/1/4 395/1/4
f 395/1/4 394/1/4 396/1/4
f 397/4/4 398/4/4 401/4/4
f 401/4/4 398/4/4 402/4/4
f 399/4/4 400/4/4 403/4/4
f 403/4/4 400/4/4 404/4/4
f 405/4/4 406/4/4 409/4/4
f 409/4/4 406/4/4 410/4/4
f 407/4/4 408/4/4 411/4/4
f 411/4/4 408/4/4 412/4/4
f 413/4/4 414/4/4 417/4/4
f 417/4/4 414/4/4 418/4/4
f 415/4/4 416/4/4 419/4/4
f 419/4/4 416/4/4 420/4/4
f 421/4/4 422/4/4 423/4/4
f 423/4/4 422/4/4 424/4/4
f 427/1/5 426/1/5 425/1/5
f 428/1/5 426/1/5 427/1/5
f 429/1/5 427/1/5 425/1/5
f 429/5/5 428/5/5 427/5/5
f 430/1/5 426/1/5 428/1/5
f 430/5/5 428/5/5 429/5/5
f 431/1/5 429/1/5 425/1/5
f 431/1/5 430/1/5 429/1/5
f 432/1/5 426/1/5 430/1/5
f 432/1/5 430/1/5 431/1/5
f 436/4/5 434/4/5 433/4/5
f 437/4/5 434/4/5 436/4/5
f 440/1/5 436/1/5 435/1/5
f 440/1/5 438/1/5 437/1/5
f 440/1/5 437/1/5 436/1/5
f 441/1/5 438/1/5 440/1/5
f 444/1/5 440/1/5 439/1/5
f 445/1/5 442/1/5 441/1/5
f 447/4/5 444/4/5 443/4/5
f 448/1/5 440/1/5 444/1/5
f 448/4/5 444/4/5 447/4/5
f 449/4/5 446/4/5 445/4/5
f 449/1/5 445/1/5 441/1/5
f 450/4/5 446/4/5 449/4/5
f 451/1/5 440/1/5 448/1/5
f 452/1/5 440/1/5 451/1/5
f 453/1/5 449/1/5 441/1/5
f 454/1/5 449/1/5 453/1/5
f 455/1/5 453/1/5 452/1/5
f 456/1/5 453/1/5 455/1/5
f 457/1/5 453/1/5 456/1/5
f 458/1/5 453/1/5 457/1/5
f 459/4/5 457/4/5 456/4/5
f 460/4/5 457/4/5 459/4/5
f 463/4/5 462/4/5 461/4/5
f 464/4/5 462/4/5 463/4/5
f 469/4/5 466/4/5 465/4/5
f 470/4/5 466/4/5 469/4/5
f 471/4/5 468/4/5 467/4/5
f 472/4/5 468/4/5 471/4/5
f 475/4/5 474/4/5 473/4/5
f 476/4/5 474/4/5 475/4/5
f 479/4/5 478/4/5 477/4/5
f 480/4/5 478/4/5 479/4/5
f 485/4/5 482/4/5 481/4/5
f 486/4/5 482/4/5 485/4/5
f 487/4/5 484/4/5 483/4/5
f 488/4/5 484/4/5 487/4/5
f 491/4/5 490/4/5 489/4/5
f 492/4/5 490/4/5 491/4/5
f 495/4/5 494/4/5 493/4/5
f 496/4/5 494/4/5 495/4/5
f 501/4/5 498/4/5 497/4/5
f 502/4/5 498/4/5 501/4/5
f 503/4/5 500/4/5 499/4/5
f 504/4/5 500/4/5 503/4/5
f 507/4/5 506/4/5 505/4/5
f 508/4/5 506/4/5 507/4/5
f 509/4/6 510/4/6 511/4/6
f 511/4/6 510/4/6 512/4/6
f 513/4/6 514/4/6 517/4/6
f 517/4/6 514/4/6 518/4/6
f 515/4/6 516/4/6 519/4/6
f 519/4/6 516/4/6 520/4/6
f 521/4/6 522/4/6 523/4/6
f 523/4/6 522/4/6 524/4/6
f 525/4/6 526/4/6 527/4/6
f 527/4/6 526/4/6 528/4/6
f 529/4/6 530/4/6 533/4/6
f 533/4/6 530/4/6 534/4/6
f 531/4/6 532/4/6 535/4/6
f 535/4/6 532/4/6 536/4/6
f 537/4/6 538/4/6 539/4/6
f 539/4/6 538/4/6 540/4/6
f 541/4/6 542/4/6 543/4/6
f 543/4/6 542/4/6 544/4/6
f 545/4/6 546/4/6 549/4/6
f 549/4/6 546/4/6 550/4/6
f 547/4/6 548/4/6 551/4/6
f 551/4/6 548/4/6 552/4/6
f 553/4/6 554/4/6 555/4/6
f 555/4/6 554/4/6 556/4/6
f 557/4/6 558/4/6 560/4/6
f 560/4/6 558/4/6 561/4/6
f 559/1/6 560/1/6 564/1/6
f 561/1/6 562/1/6 564/1/6
f 560/1/6 561/1/6 564/1/6
f 564/1/6 562/1/6 565/1/6
f 563/1/6 564/1/6 568/1/6
f 565/1/6 566/1/6 568/1/6
f 564/1/6 565/1/6 568/1/6
f 568/1/6 566/1/6 569/1/6
f 567/4/6 568/4/6 571/4/6
f 568/1/6 569/1/6 572/1/6
f 571/4/6 568/4/6 572/4/6
f 569/4/6 570/4/6 573/4/6
f 572/1/6 569/1/6 573/1/6
f 573/4/6 570/4/6 574/4/6
f 572/1/6 573/1/6 575/1/6
f 575/1/6 573/1/6 576/1/6
f 576/1/6 573/1/6 577/1/6
f 577/1/6 573/1/6 578/1/6
f 576/1/6 577/1/6 579/1/6
f 579/1/6 577/1/6 580/1/6
f 580/1/6 577/1/6 581/1/6
f 581/1/6 577/1/6 582/1/6
f 580/4/6 581/4/6 583/4/6
f 583/4/6 581/4/6 584/4/6
